<?xml version="1.0" encoding="UTF-8" standalone="no"?>
<svg
   xmlns:dc="http://purl.org/dc/elements/1.1/"
   xmlns:cc="http://creativecommons.org/ns#"
   xmlns:rdf="http://www.w3.org/1999/02/22-rdf-syntax-ns#"
   xmlns:svg="http://www.w3.org/2000/svg"
   xmlns="http://www.w3.org/2000/svg"
   version="1.1"
   id="svg2"
   viewBox="0 0 543.17969 103.82757"
   height="29.302448mm"
   width="153.29738mm">
  <defs
     id="defs4" />
  <metadata
     id="metadata7">
    <rdf:RDF>
      <cc:Work
         rdf:about="">
        <dc:format>image/svg+xml</dc:format>
        <dc:type
           rdf:resource="http://purl.org/dc/dcmitype/StillImage" />
        <dc:title></dc:title>
      </cc:Work>
    </rdf:RDF>
  </metadata>
  <g
     transform="translate(-95.291066,-348.51088)"
     id="layer1">
    <g
       id="g4144"
       transform="matrix(1.25,0,0,-1.25,-154.75293,800.4888)">
      <g
         id="g4146" />
    </g>
    <g
       style="fill:#f9c766;fill-opacity:1"
       id="g4365">
      <path
         id="path4156"
         style="fill:#f9c766;fill-opacity:1;fill-rule:nonzero;stroke:none"
         d="m 152.28294,364.38595 c -22.60375,0 -33.015,11.78125 -33.015,25.4825 0,26.71375 39.31625,21.23375 39.31625,42.88 0,9.04125 -6.84875,18.76875 -22.8775,18.76875 -19.31625,0 -22.1925,-13.975 -24.38625,-28.63375 0,0 -13.5525,-1.295 -15.76,10.4325 -2.2575,13.23875 10.41625,15.46125 10.41625,15.46125 7.4,1.64375 19.31875,3.56125 29.8675,3.56125 26.85,0 36.1675,-12.46625 36.1675,-26.30375 0,-29.04375 -40.005,-23.56375 -40.005,-43.97625 0,-8.7675 7.3975,-16.7125 20.825,-16.7125 14.79625,0 20.1375,9.725 22.60375,26.44 l 0.685,-0.13625 4.65875,-26.5775 c -9.59,2.05375 -17.39875,-0.68625 -28.49625,-0.68625" />
      <path
         id="path4160"
         style="fill:#f9c766;fill-opacity:1;fill-rule:nonzero;stroke:none"
         d="m 201.16894,450.53008 c -7.5325,0 -10.80875,-4.58375 -10.80875,-10.88875 0,-7.20625 4.25875,-11.62875 8.18875,-13.92 l 15.475,19.815 c -3.35625,2.78375 -7.77875,4.99375 -12.855,4.99375 m 10.89125,-50.8475 c 4.4225,0 6.79625,2.5375 6.79625,7.0425 0,7.12125 -5.9775,11.7075 -11.3825,14.41 l -1.6375,-2.1275 c -2.70125,-3.36 -3.685,-6.06125 -3.685,-8.92625 0,-5.405 3.7675,-10.39875 9.90875,-10.39875 m 4.55375,28.07875 c 6.05875,0 8.8225,3.915 4.29,10.56875 l -13.18375,-16.785 c 6.79625,-2.21125 18.58625,-4.75 18.58625,-13.10125 0,-5.815 -5.73125,-9.33625 -14.32875,-9.33625 -10.80875,0 -18.83375,5.8975 -18.83375,14.4125 0,4.09375 1.88375,7.69625 3.93125,10.3175 l 1.145,1.4725 c -8.515,2.86625 -17.44125,6.71625 -17.44125,14.985 0,7.615 7.78125,11.3825 17.115,11.3825 7.12375,0 12.60875,-2.375 16.6225,-5.56875 l 3.6025,4.585 15.96625,0 0.16375,-0.5725 c -3.52125,0 -4.99375,-1.14625 -8.025,-5.07625 l -4.99375,-6.2225 c 1.47375,-2.13 0.78875,-0.66125 2.18,-3.52875 2.78375,-5.24 3.76625,-7.5325 11.1375,-7.5325 l 0.16125,-0.5725 -17.93125,0 -0.16375,0.5725 z" />
    </g>
    <g
       transform="matrix(1.25,0,0,-1.25,152.45738,364.2615)"
       id="g4154" />
    <g
       transform="matrix(1.25,0,0,-1.25,201.34338,450.40563)"
       id="g4158" />
    <g
       style="fill:#ffffff"
       id="g4369">
      <g
         style="fill:#ffffff"
         id="g4162"
         transform="matrix(1.25,0,0,-1.25,450.58775,392.97937)">
        <path
           d="M 0,0 C 0,0 2.227,8.32 2.645,10.342 3.031,11.865 2.562,20.646 -8.45,19.453 -14.057,18.867 -18.128,13.85 -17.548,8.244 l -0.07,-0.21 c 4.955,0 6.593,-1.577 6.073,-5.59 l -0.896,-3.801 -7.452,0 -0.329,-1.315 7.562,0 -7.233,-31.126 c -2.083,-8.877 2.082,-13.37 9.534,-13.37 7.673,0 13.482,4.822 17.866,9.097 l -0.439,0.437 c -2.959,-2.96 -6.905,-6.137 -11.069,-6.137 -3.947,0 -5.262,2.959 -4.056,8.33 l 7.563,32.769 13.37,0 0.329,1.315 -13.371,0 L 0,0 Z"
           style="fill:#ffffff;fill-opacity:1;fill-rule:nonzero;stroke:none"
           id="path4164" />
      </g>
      <g
         style="fill:#ffffff"
         id="g4166"
         transform="matrix(1.25,0,0,-1.25,493.34663,348.51088)">
        <path
           d="m 0,0 c -5.568,-0.581 -9.617,-5.535 -9.104,-11.094 l -0.064,-0.191 c 5.699,0 7.014,-2.083 5.699,-7.564 l -12.164,-52.935 c -1.536,-6.575 0.875,-10.959 7.124,-10.959 4.384,0 9.315,2.192 14.028,5.15 l 0.109,0.768 c -1.973,-1.205 -4.931,-2.739 -7.123,-2.739 -2.302,0 -3.07,1.752 -2.411,5.041 L 11.063,-9.114 C 11.063,-9.114 12.543,0 0,0"
           style="fill:#ffffff;fill-opacity:1;fill-rule:nonzero;stroke:none"
           id="path4168" />
      </g>
      <g
         style="fill:#ffffff"
         id="g4170"
         transform="matrix(1.25,0,0,-1.25,530.93076,420.97875)">
        <path
           d="m 0,0 c 2.19,10.521 8.22,21.481 16,21.481 4.056,0 5.59,-2.959 5.59,-7.234 C 21.59,2.96 11.069,-0.547 0,0 M 16.219,22.248 C 0.766,22.248 -13.7,10.084 -13.7,-6.028 c 0,-10.302 6.027,-18.85 19.288,-18.85 11.727,0 19.071,6.905 23.563,12.164 l -0.547,0.44 c -3.945,-4.714 -10.193,-10.084 -17.754,-10.084 -8.111,0 -11.618,6.137 -11.618,14.576 0,2.192 0.219,4.494 0.657,7.014 11.07,-0.985 32.99,-0.875 32.99,11.399 0,6.795 -6.905,11.617 -16.66,11.617"
           style="fill:#ffffff;fill-opacity:1;fill-rule:nonzero;stroke:none"
           id="path4172" />
      </g>
      <g
         style="fill:#ffffff"
         id="g4174"
         transform="matrix(1.25,0,0,-1.25,309.4155,428.65)">
        <path
           d="m 0,0 -12.045,50.196 c -1.788,7.413 -5.531,11.413 -11.934,11.285 -6.47,-0.129 -11.61,-5.478 -11.48,-11.948 l 0.2,0.004 -0.031,-0.109 c 10.85,0 12.164,-5.809 8.767,-17.645 L -30.468,18.96 c -8.658,-31.126 -12.604,-35.839 -24.222,-35.839 l -0.219,-0.657 27.839,0 0.109,0.657 c -11.399,0 -11.508,4.822 -2.52,35.839 l 6.137,20.496 13.7,-55.02 0.547,0 36.826,57.54 L 19.29,-5.043 C 17.973,-12.604 15.343,-16.879 7.233,-16.879 l -0.109,-0.657 33.098,0 0.22,0.657 c -8.22,0 -9.097,3.728 -7.563,12.385 l 7.563,41.318 c 1.425,7.673 3.617,12.604 12.384,12.604 l 0.219,0.768 -21.152,0 L 0,0 Z"
           style="fill:#ffffff;fill-opacity:1;fill-rule:nonzero;stroke:none"
           id="path4176" />
      </g>
      <g
         style="fill:#ffffff"
         id="g4178"
         transform="matrix(1.25,0,0,-1.25,395.3915,441.93862)">
        <path
           d="m 0,0 8.287,32.408 c 0,0 0.901,9.11 -11.094,9.11 -5.607,-0.585 -9.679,-5.603 -9.099,-11.209 l -0.069,-0.21 c 5.699,0 7.014,-2.082 5.699,-7.563 L -11.727,2.739 c -1.535,-6.574 0.876,-10.959 7.124,-10.959 4.384,0 9.316,2.192 14.028,5.151 l 0.11,0.767 C 7.561,-3.507 4.603,-5.041 2.411,-5.041 0.109,-5.041 -0.658,-3.288 0,0"
           style="fill:#ffffff;fill-opacity:1;fill-rule:nonzero;stroke:none"
           id="path4180" />
      </g>
      <g
         style="fill:#ffffff"
         id="g4182"
         transform="matrix(1.25,0,0,-1.25,629.56575,393.60187)">
        <path
           d="m 0,0 c -6.513,0 -12.315,-7.551 -16.067,-15.223 l 1.958,8.525 c 0.218,5.455 -5.704,9.146 -11.138,8.578 -5.607,-0.585 -9.678,-5.602 -9.098,-11.209 l -0.069,-0.209 c 5.698,0 6.882,-1.89 5.567,-7.37 l -6.662,-29.013 12.383,0 2.481,10.762 0.002,0.01 3.984,17.285 c 2.63,5.479 6.138,10.302 9.973,11.727 0,-0.439 -0.109,-0.877 -0.109,-1.315 0,-4.056 3.178,-7.235 6.904,-7.235 3.836,0 7.015,3.179 7.015,7.344 C 7.124,-3.507 4.384,0 0,0"
           style="fill:#ffffff;fill-opacity:1;fill-rule:nonzero;stroke:none"
           id="path4184" />
      </g>
    </g>
  </g>
</svg>
